<?xml version="1.0" encoding="UTF-8" standalone="no"?>
<svg
   xmlns:dc="http://purl.org/dc/elements/1.1/"
   xmlns:cc="http://creativecommons.org/ns#"
   xmlns:rdf="http://www.w3.org/1999/02/22-rdf-syntax-ns#"
   xmlns:svg="http://www.w3.org/2000/svg"
   xmlns="http://www.w3.org/2000/svg"
   xmlns:sodipodi="http://sodipodi.sourceforge.net/DTD/sodipodi-0.dtd"
   xmlns:inkscape="http://www.inkscape.org/namespaces/inkscape"
   width="233mm"
   height="234mm"
   viewBox="0 0 233 234"
   version="1.1"
   id="svg883"
   inkscape:version="1.0.1 (3bc2e813f5, 2020-09-07)"
   sodipodi:docname="logowhite.svg">
  <defs
     id="defs877" />
  <sodipodi:namedview
     id="base"
     pagecolor="#ffffff"
     bordercolor="#666666"
     borderopacity="1.0"
     inkscape:pageopacity="0.0"
     inkscape:pageshadow="2"
     inkscape:zoom="0.35"
     inkscape:cx="400"
     inkscape:cy="560"
     inkscape:document-units="mm"
     inkscape:current-layer="layer1"
     inkscape:document-rotation="0"
     showgrid="false"
     height="211mm"
     inkscape:window-width="1647"
     inkscape:window-height="977"
     inkscape:window-x="96"
     inkscape:window-y="130"
     inkscape:window-maximized="0" />
  <metadata
     id="metadata880">
    <rdf:RDF>
      <cc:Work
         rdf:about="">
        <dc:format>image/svg+xml</dc:format>
        <dc:type
           rdf:resource="http://purl.org/dc/dcmitype/StillImage" />
        <dc:title></dc:title>
      </cc:Work>
    </rdf:RDF>
  </metadata>
  <g
     inkscape:label="Calque 1"
     inkscape:groupmode="layer"
     id="layer1">
    <g
       id="g1471"
       transform="translate(13.607143,-55.184524)">
      <g
         id="g6655"
         style="display:inline;fill:#c87137"
         transform="translate(-49.76275,71.304753)">
        <path
           style="fill:#ffffff;fill-opacity:1;stroke:#004455;stroke-width:2.565;stroke-linecap:butt;stroke-linejoin:miter;stroke-miterlimit:4;stroke-dasharray:none;stroke-opacity:1"
           d="m 111.69672,93.160133 c 0,0 34.03574,94.603747 35.17935,96.584527 1.1436,1.98078 2.66604,2.20671 3.58571,2.07021 1.79309,-0.26614 2.67677,-1.60687 3.47777,-2.51827 0.27634,-0.31444 37.14461,-96.525883 37.14461,-96.525883 z"
           id="path6649"
           sodipodi:nodetypes="cssscc" />
        <path
           style="fill:#ffffff;fill-opacity:1;stroke:#004455;stroke-width:1.965;stroke-linecap:butt;stroke-linejoin:round;stroke-miterlimit:4;stroke-dasharray:none;stroke-opacity:1"
           d="m 102.89877,86.440203 3.20723,8.686261 90.3371,-0.133636 4.67722,-8.552625 z"
           id="path6647" />
      </g>
      <path
         style="display:inline;opacity:1;mix-blend-mode:normal;fill:#ffffff;fill-opacity:1;stroke:#004455;stroke-width:2.765;stroke-linecap:butt;stroke-linejoin:round;stroke-miterlimit:4;stroke-dasharray:none;stroke-opacity:1"
         d="m 59.545179,143.86843 -0.93545,-10.0226 -0.801809,-7.48356 c 0,0 -0.668171,-2.27179 0.267268,-6.81536 0.935451,-4.54359 11.893503,-18.70888 13.764382,-20.713394 1.87089,-2.004521 15.501639,-9.087162 24.722429,-9.220801 9.220811,-0.13363 24.588801,-0.13363 36.081391,9.6217 11.49259,9.755345 13.29513,20.261385 14.67836,25.423665 1.38323,5.16229 1.60043,8.42663 0,14.39949 -1.60042,5.97288 -2.71375,6.00818 -2.16181,8.06803 0.55193,2.05985 3.24582,1.80842 5.20935,5.20935 1.96353,3.40093 0,7.30239 0,7.30239 -3.15971,1.20271 -2.49153,1.33635 -5.8324,-0.26727 -3.34087,-1.60363 -2.13816,-1.73726 -9.08717,0.66817 -6.949,2.40543 -11.35895,2.53906 -14.43255,1.73725 -3.0736,-0.8018 -10.02261,-3.20723 -15.10073,-2.00452 -5.07812,1.20272 -16.169811,3.60814 -24.05426,3.34087 -7.884451,-0.26727 -13.89801,-4.81085 -17.90705,-5.07812 -4.009049,-0.26728 -4.409951,1.20271 -5.21176,1.87089 -0.801809,0.66817 -4.67722,-0.66818 -7.483549,-2.80634 -2.80634,-2.13816 0.40091,-6.81537 2.138159,-7.88444 1.737248,-1.06909 1.46999,-0.26728 6.147199,-5.3454 z"
         id="path6662" />
      <path
         style="display:inline;opacity:1;fill:#004455;fill-opacity:1;stroke:none;stroke-width:0.264583px;stroke-linecap:butt;stroke-linejoin:miter;stroke-opacity:1"
         d="m 72.24048,145.47205 c 0,0 -2.271789,-0.26728 -6.548109,-10.82442 -4.276313,-10.55715 1.737259,-20.98066 3.87541,-22.71791 2.138159,-1.73725 5.345388,-4.00905 5.879928,-2.6727 0.53454,1.33635 -1.870879,8.01809 -2.80633,12.56167 -0.935439,4.54358 -2.271789,9.6217 -1.336339,14.83346 0.93544,5.21175 0.93544,8.8199 0.93544,8.8199 z"
         id="path6666" />
      <circle
         style="display:inline;opacity:1;fill:none;fill-opacity:1;stroke:#ffffff;stroke-width:7.96499;stroke-linecap:round;stroke-linejoin:round;stroke-miterlimit:4;stroke-dasharray:none;stroke-opacity:1"
         id="path6685"
         cx="103.56548"
         cy="172.35715"
         r="110.39512" />
      <circle
         style="display:inline;opacity:1;fill:none;fill-opacity:1;stroke:#ffffff;stroke-width:2.423;stroke-linecap:round;stroke-linejoin:round;stroke-miterlimit:4;stroke-dasharray:none;stroke-opacity:1"
         id="circle6695"
         cx="104.24976"
         cy="172.58524"
         r="98.727318" />
    </g>
  </g>
</svg>
